<?xml version="1.0" encoding="UTF-8"?>
<svg xmlns="http://www.w3.org/2000/svg" xmlns:xlink="http://www.w3.org/1999/xlink" width="500" zoomAndPan="magnify" viewBox="0 0 375 374.999991" height="500" preserveAspectRatio="xMidYMid meet" version="1.0">
  <defs>
    <g/>
    <clipPath id="e48f15daaa">
      <path d="M 63.582031 51.460938 L 311.417969 51.460938 L 311.417969 324 L 63.582031 324 Z M 63.582031 51.460938 " clip-rule="nonzero"/>
    </clipPath>
    <clipPath id="b67041dd41">
      <path d="M 187.5 51.460938 L 311.417969 124.234375 L 311.417969 250.765625 L 187.5 323.539062 L 63.582031 250.765625 L 63.582031 124.234375 Z M 187.5 51.460938 " clip-rule="nonzero"/>
    </clipPath>
    <clipPath id="c3ce90a211">
      <path d="M 63.582031 51.460938 L 312 51.460938 L 312 323.296875 L 63.582031 323.296875 Z M 63.582031 51.460938 " clip-rule="nonzero"/>
    </clipPath>
    <clipPath id="ce54270ac0">
      <path d="M 187.5 51.460938 L 311.414062 124.230469 L 311.414062 250.761719 L 187.5 323.53125 L 63.582031 250.761719 L 63.582031 124.230469 Z M 187.5 51.460938 " clip-rule="nonzero"/>
    </clipPath>
  </defs>
  <rect x="-37.5" width="450" fill="#ffffff" y="-37.499999" height="449.999989" fill-opacity="1"/>
  <rect x="-37.5" width="450" fill="#ffffff" y="-37.499999" height="449.999989" fill-opacity="1"/>
  <g clip-path="url(#e48f15daaa)">
    <g clip-path="url(#b67041dd41)">
      <path fill="#253d77" d="M 63.582031 51.460938 L 311.417969 51.460938 L 311.417969 323.503906 L 63.582031 323.503906 Z M 63.582031 51.460938 " fill-opacity="1" fill-rule="nonzero"/>
    </g>
  </g>
  <g clip-path="url(#c3ce90a211)">
    <g clip-path="url(#ce54270ac0)">
      <path stroke-linecap="butt" transform="matrix(1.667704, 0, 0, 1.667704, 63.583397, 51.459976)" fill="none" stroke-linejoin="miter" d="M 74.30372 0.000576649 L 148.605916 43.63514 L 148.605916 119.506672 L 74.30372 163.141235 L -0.000819015 119.506672 L -0.000819015 43.63514 Z M 74.30372 0.000576649 " stroke="#bcba87" stroke-width="1.798881" stroke-opacity="1" stroke-miterlimit="4"/>
    </g>
  </g>
  <g fill="#bcba87" fill-opacity="1">
    <g transform="translate(97.320152, 226.654362)">
      <g>
        <path d="M 81.859375 0 L 81.75 -47.75 L 58.328125 -8.40625 L 50.03125 -8.40625 L 26.71875 -46.734375 L 26.71875 0 L 9.4375 0 L 9.4375 -79.59375 L 24.671875 -79.59375 L 54.46875 -30.125 L 83.796875 -79.59375 L 98.921875 -79.59375 L 99.15625 0 Z M 81.859375 0 "/>
      </g>
    </g>
  </g>
  <g fill="#bcba87" fill-opacity="1">
    <g transform="translate(228.440865, 226.654362)">
      <g>
        <path d="M 9.4375 -79.59375 L 27.859375 -79.59375 L 27.859375 0 L 9.4375 0 Z M 9.4375 -79.59375 "/>
      </g>
    </g>
  </g>
  <path stroke-linecap="butt" transform="matrix(0, -1.667704, 1.667704, 0, 213.534936, 256.353235)" fill="none" stroke-linejoin="miter" d="M 0.00100298 1.499199 L 80.514964 1.499199 " stroke="#bcba87" stroke-width="3" stroke-opacity="1" stroke-miterlimit="4"/>
</svg>